<?xml version="1.0" standalone="no"?>
<!DOCTYPE svg PUBLIC "-//W3C//DTD SVG 20010904//EN"
 "http://www.w3.org/TR/2001/REC-SVG-20010904/DTD/svg10.dtd">
<svg version="1.0" xmlns="http://www.w3.org/2000/svg"
 width="700.000000pt" height="700.000000pt" viewBox="0 0 700.000000 700.000000"
 preserveAspectRatio="xMidYMid meet">
<metadata>
Created by potrace 1.11, written by Peter Selinger 2001-2013
</metadata>
<g transform="translate(0.000000,700.000000) scale(0.100000,-0.100000)"
fill="#000000" stroke="none">
<path d="M64 6990 c-12 -4 -31 -21 -43 -36 l-21 -27 0 -2728 0 -2729 29 -32
29 -33 3442 0 3442 0 29 33 29 32 0 2730 0 2730 -29 32 -29 33 -3429 2 c-1885
1 -3438 -2 -3449 -7z m6707 -195 c1 -5 2 -292 3 -637 1 -550 -1 -627 -14 -630
-13 -3 -6496 -2 -6525 1 -16 2 -14 1265 2 1271 25 10 6533 5 6534 -5z m0
-1472 c1 -5 2 -842 3 -1862 1 -1732 0 -1854 -16 -1860 -12 -4 -6435 -6 -6518
-2 -13 1 -15 213 -14 1849 1 1016 2 1855 3 1865 1 16 164 17 3271 17 1799 0
3271 -3 3271 -7z"/>
<path d="M2198 6493 c-65 -18 -136 -61 -181 -107 -92 -95 -118 -237 -64 -349
116 -236 452 -290 654 -104 128 118 137 310 22 441 -99 112 -283 163 -431 119z
m202 -203 c80 -41 109 -128 63 -195 -87 -128 -313 -78 -313 70 0 110 141 181
250 125z"/>
<path d="M4590 6502 c-50 -8 -149 -61 -192 -101 -87 -79 -128 -203 -102 -304
71 -279 466 -372 680 -159 73 74 104 152 98 248 -10 136 -99 244 -249 301 -39
15 -185 24 -235 15z m176 -213 c81 -38 107 -132 59 -205 -44 -68 -180 -83
-252 -28 -151 115 18 318 193 233z"/>
<path d="M1219 4542 c-8 -2 -25 -9 -37 -15 -54 -26 -52 13 -52 -1072 l0 -1007
29 -29 c16 -16 38 -30 48 -30 10 -1 1042 -3 2293 -4 1805 -1 2282 1 2307 11
70 28 65 -47 65 1069 0 1107 4 1040 -60 1067 -20 8 -646 12 -2303 13 -1252 0
-2283 -1 -2290 -3z m1038 -584 l-2 -393 -450 -2 -450 -1 1 386 c1 213 2 390 3
395 1 4 203 7 450 7 l449 0 -1 -392z m1131 0 l-3 -393 -450 -1 -450 -2 -1 394
0 394 453 0 453 0 -2 -392z m1128 -2 l0 -394 -451 0 -450 0 1 386 c1 213 2
390 3 395 0 4 203 7 449 7 l448 0 0 -394z m1130 2 l-1 -393 -452 -2 -452 -1 0
394 0 394 453 0 453 0 -1 -392z m-3391 -983 l0 -390 -447 -3 c-247 -1 -448 1
-449 5 -5 42 -3 761 2 768 5 7 165 10 451 10 l443 0 0 -390z m1133 -3 l2 -392
-452 2 -453 3 -1 380 c0 209 1 385 3 390 2 7 159 10 451 10 l447 0 3 -393z
m1127 0 l1 -392 -451 2 -450 3 -1 380 c0 209 1 385 3 390 2 6 161 10 451 10
l447 0 0 -393z m1121 389 c8 -1 11 -114 11 -391 l0 -390 -453 0 -453 0 0 387
c0 213 4 390 9 393 7 4 849 5 886 1z"/>
</g>
</svg>
