<svg version="1" xmlns="http://www.w3.org/2000/svg" width="933.333" height="933.333" viewBox="0 0 700.000000 700.000000"><path d="M6.4 1c-1.2.4-3.1 2.1-4.3 3.6L0 7.3V553l2.9 3.2 2.9 3.3h688.4l2.9-3.3 2.9-3.2V7l-2.9-3.2-2.9-3.3L351.3.3C162.8.2 7.5.5 6.4 1zm670.7 19.5c.1.5.2 29.2.3 63.7.1 55-.1 62.7-1.4 63-1.3.3-649.6.2-652.5-.1-1.6-.2-1.4-126.5.2-127.1 2.5-1 653.3-.5 653.4.5zm0 147.2c.1.5.2 84.2.3 186.2.1 173.2 0 185.4-1.6 186-1.2.4-643.5.6-651.8.2-1.3-.1-1.5-21.3-1.4-184.9.1-101.6.2-185.5.3-186.5.1-1.6 16.4-1.7 327.1-1.7 179.9 0 327.1.3 327.1.7z"/><path d="M219.8 50.7c-6.5 1.8-13.6 6.1-18.1 10.7-9.2 9.5-11.8 23.7-6.4 34.9 11.6 23.6 45.2 29 65.4 10.4 12.8-11.8 13.7-31 2.2-44.1-9.9-11.2-28.3-16.3-43.1-11.9zM240 71c8 4.1 10.9 12.8 6.3 19.5-8.7 12.8-31.3 7.8-31.3-7 0-11 14.1-18.1 25-12.5zm219-21.2c-5 .8-14.9 6.1-19.2 10.1-8.7 7.9-12.8 20.3-10.2 30.4 7.1 27.9 46.6 37.2 68 15.9 7.3-7.4 10.4-15.2 9.8-24.8-1-13.6-9.9-24.4-24.9-30.1-3.9-1.5-18.5-2.4-23.5-1.5zm17.6 21.3c8.1 3.8 10.7 13.2 5.9 20.5-4.4 6.8-18 8.3-25.2 2.8-15.1-11.5 1.8-31.8 19.3-23.3zM121.9 245.8c-.8.2-2.5.9-3.7 1.5-5.4 2.6-5.2-1.3-5.2 107.2v100.7l2.9 2.9c1.6 1.6 3.8 3 4.8 3 1 .1 104.2.3 229.3.4 180.5.1 228.2-.1 230.7-1.1 7-2.8 6.5 4.7 6.5-106.9 0-110.7.4-104-6-106.7-2-.8-64.6-1.2-230.3-1.3-125.2 0-228.3.1-229 .3zm103.8 58.4l-.2 39.3-45 .2-45 .1.1-38.6c.1-21.3.2-39 .3-39.5.1-.4 20.3-.7 45-.7h44.9l-.1 39.2zm113.1 0l-.3 39.3-45 .1-45 .2-.1-39.4V265H339l-.2 39.2zm112.8.2v39.4h-90.1l.1-38.6c.1-21.3.2-39 .3-39.5 0-.4 20.3-.7 44.9-.7h44.8v39.4zm113-.2l-.1 39.3-45.2.2-45.2.1V265h90.6l-.1 39.2zm-339.1 98.3v39l-44.7.3c-24.7.1-44.8-.1-44.9-.5-.5-4.2-.3-76.1.2-76.8.5-.7 16.5-1 45.1-1h44.3v39zm113.3.3l.2 39.2-45.2-.2-45.3-.3-.1-38c0-20.9.1-38.5.3-39 .2-.7 15.9-1 45.1-1h44.7l.3 39.3zm112.7 0l.1 39.2-45.1-.2-45-.3-.1-38c0-20.9.1-38.5.3-39 .2-.6 16.1-1 45.1-1h44.7v39.3zm112.1-38.9c.8.1 1.1 11.4 1.1 39.1v39h-90.6v-38.7c0-21.3.4-39 .9-39.3.7-.4 84.9-.5 88.6-.1z"/></svg>